<?xml version="1.0" encoding="UTF-8" standalone="no"?>
<!DOCTYPE svg PUBLIC "-//W3C//DTD SVG 1.1//EN"
 "http://www.w3.org/Graphics/SVG/1.1/DTD/svg11.dtd">
<!-- Generated by graphviz version 2.28.0 (20120228.1928)
 -->
<!-- Title: might_of_aurora Pages: 1 -->
<svg width="2134pt" height="944pt"
 viewBox="0.00 0.00 2134.00 944.00" xmlns="http://www.w3.org/2000/svg" xmlns:xlink="http://www.w3.org/1999/xlink">
<g id="graph1" class="graph" transform="scale(1 1) rotate(0) translate(4 940)">
<title>might_of_aurora</title>
<polygon fill="white" stroke="white" points="-4,5 -4,-940 2131,-940 2131,5 -4,5"/>
<!-- Mandy -->
<g id="node2" class="node"><title>Mandy</title>
<polygon fill="#8b7355" stroke="black" points="1551,-936 1479,-936 1479,-864 1551,-864 1551,-936"/>
<text text-anchor="middle" x="1515" y="-896.3" font-family="Times,serif" font-size="14.00">Mandy</text>
</g>
<!-- Sir\nWyngard -->
<g id="node6" class="node"><title>Sir\nWyngard</title>
<polygon fill="#458b00" stroke="black" points="1302,-828 1230,-828 1230,-756 1302,-756 1302,-828"/>
<text text-anchor="middle" x="1266" y="-795.8" font-family="Times,serif" font-size="14.00">Sir</text>
<text text-anchor="middle" x="1266" y="-780.8" font-family="Times,serif" font-size="14.00">Wyngard</text>
</g>
<!-- Mandy&#45;&#45;Sir\nWyngard -->
<g id="edge25" class="edge"><title>Mandy&#45;&#45;Sir\nWyngard</title>
<path fill="none" stroke="#8b7355" d="M1515,-863.86C1515,-839.957 1515,-813 1515,-813 1515,-813 1371.27,-813 1302.21,-813"/>
</g>
<!-- Opportunist -->
<g id="node11" class="node"><title>Opportunist</title>
<polygon fill="none" stroke="black" points="1387,-720 1351,-666 1423,-666 1387,-720"/>
<text text-anchor="middle" x="1387" y="-680.3" font-family="Times,serif" font-size="14.00">Opportunist</text>
</g>
<!-- Mandy&#45;&#45;Opportunist -->
<g id="edge11" class="edge"><title>Mandy&#45;&#45;Opportunist</title>
<path fill="none" stroke="#8b7355" d="M1478.66,-874C1440.82,-874 1387,-874 1387,-874 1387,-874 1387,-775.312 1387,-720.185"/>
</g>
<!-- Cautious -->
<g id="node12" class="node"><title>Cautious</title>
<polygon fill="none" stroke="black" points="1008,-504 972,-450 1044,-450 1008,-504"/>
<text text-anchor="middle" x="1008" y="-464.3" font-family="Times,serif" font-size="14.00">Cautious</text>
</g>
<!-- Mandy&#45;&#45;Cautious -->
<g id="edge9" class="edge"><title>Mandy&#45;&#45;Cautious</title>
<path fill="none" stroke="#8b7355" d="M1478.94,-915C1363.12,-915 1008,-915 1008,-915 1008,-915 1008,-610.617 1008,-504.201"/>
</g>
<!-- Social -->
<g id="node13" class="node"><title>Social</title>
<polygon fill="none" stroke="black" points="1515,-720 1479,-666 1551,-666 1515,-720"/>
<text text-anchor="middle" x="1515" y="-680.3" font-family="Times,serif" font-size="14.00">Social</text>
</g>
<!-- Mandy&#45;&#45;Social -->
<g id="edge13" class="edge"><title>Mandy&#45;&#45;Social</title>
<path fill="none" stroke="#8b7355" d="M1524,-863.846C1524,-819.05 1524,-744.073 1524,-706.664"/>
</g>
<!-- Theft -->
<g id="node19" class="node"><title>Theft</title>
<polygon fill="none" stroke="black" points="1174,-396 1138,-342 1210,-342 1174,-396"/>
<text text-anchor="middle" x="1174" y="-356.3" font-family="Times,serif" font-size="14.00">Theft</text>
</g>
<!-- Mandy&#45;&#45;Theft -->
<g id="edge17" class="edge"><title>Mandy&#45;&#45;Theft</title>
<path fill="none" stroke="#8b7355" d="M1478.94,-894C1388.52,-894 1159.33,-894 1159.33,-894 1159.33,-894 1159.33,-458.263 1159.33,-374.009"/>
</g>
<!-- Hunger -->
<g id="node29" class="node"><title>Hunger</title>
<polygon fill="none" stroke="black" points="2090,-288 2054,-234 2126,-234 2090,-288"/>
<text text-anchor="middle" x="2090" y="-248.3" font-family="Times,serif" font-size="14.00">Hunger</text>
</g>
<!-- Mandy&#45;&#45;Hunger -->
<g id="edge7" class="edge"><title>Mandy&#45;&#45;Hunger</title>
<path fill="none" stroke="#8b7355" d="M1497,-863.619C1497,-856.925 1497,-852 1497,-852 1497,-852 2038,-852 2038,-852 2038,-852 2038,-273 2038,-273 2038,-273 2064.86,-273 2079.97,-273"/>
</g>
<!-- Mercenary -->
<g id="node30" class="node"><title>Mercenary</title>
<polygon fill="none" stroke="black" points="1302,-396 1266,-342 1338,-342 1302,-396"/>
<text text-anchor="middle" x="1302" y="-356.3" font-family="Times,serif" font-size="14.00">Mercenary</text>
</g>
<!-- Mandy&#45;&#45;Mercenary -->
<g id="edge19" class="edge"><title>Mandy&#45;&#45;Mercenary</title>
<path fill="none" stroke="#8b7355" d="M1478.84,-884C1428.79,-884 1344.5,-884 1344.5,-884 1344.5,-884 1344.5,-378 1344.5,-378 1344.5,-378 1326.63,-378 1314.07,-378"/>
</g>
<!-- Megan -->
<g id="node34" class="node"><title>Megan</title>
<ellipse fill="none" stroke="black" cx="1988" cy="-576" rx="36" ry="36"/>
<text text-anchor="middle" x="1988" y="-572.3" font-family="Times,serif" font-size="14.00">Megan</text>
</g>
<!-- Mandy&#45;&#45;Megan -->
<g id="edge15" class="edge"><title>Mandy&#45;&#45;Megan</title>
<path fill="none" stroke="#8b7355" d="M1488,-863.714C1488,-851.078 1488,-840 1488,-840 1488,-840 1988,-840 1988,-840 1988,-840 1988,-684.457 1988,-612.155"/>
</g>
<!-- Wilem -->
<g id="node35" class="node"><title>Wilem</title>
<ellipse fill="none" stroke="black" cx="1453" cy="-252" rx="36" ry="36"/>
<text text-anchor="middle" x="1453" y="-248.3" font-family="Times,serif" font-size="14.00">Wilem</text>
</g>
<!-- Mandy&#45;&#45;Wilem -->
<g id="edge21" class="edge"><title>Mandy&#45;&#45;Wilem</title>
<path fill="none" stroke="#8b7355" d="M1478.93,-905C1471.04,-905 1465,-905 1465,-905 1465,-905 1465,-420.548 1465,-286.189"/>
</g>
<!-- Metro\nWest -->
<g id="node48" class="node"><title>Metro\nWest</title>
<polygon fill="none" stroke="black" points="638,-504 602,-468 638,-432 674,-468 638,-504"/>
<text text-anchor="middle" x="638" y="-471.8" font-family="Times,serif" font-size="14.00">Metro</text>
<text text-anchor="middle" x="638" y="-456.8" font-family="Times,serif" font-size="14.00">West</text>
</g>
<!-- Mandy&#45;&#45;Metro\nWest -->
<g id="edge23" class="edge"><title>Mandy&#45;&#45;Metro\nWest</title>
<path fill="none" stroke="#8b7355" d="M1478.77,-925C1311.97,-925 626,-925 626,-925 626,-925 626,-586.726 626,-492.248"/>
</g>
<!-- Bobby -->
<g id="node3" class="node"><title>Bobby</title>
<polygon fill="#53868b" stroke="black" points="951,-720 879,-720 879,-648 951,-648 951,-720"/>
<text text-anchor="middle" x="915" y="-680.3" font-family="Times,serif" font-size="14.00">Bobby</text>
</g>
<!-- Sebastian -->
<g id="node4" class="node"><title>Sebastian</title>
<polygon fill="#8b0000" stroke="black" points="951,-612 879,-612 879,-540 951,-540 951,-612"/>
<text text-anchor="middle" x="915" y="-572.3" font-family="Times,serif" font-size="14.00" fill="white">Sebastian</text>
</g>
<!-- Bobby&#45;&#45;Sebastian -->
<g id="edge48" class="edge"><title>Bobby&#45;&#45;Sebastian</title>
<path fill="none" stroke="#53868b" d="M897,-647.737C897,-636.339 897,-623.755 897,-612.351"/>
</g>
<!-- Domination -->
<g id="node9" class="node"><title>Domination</title>
<polygon fill="none" stroke="black" points="36,-180 0,-126 72,-126 36,-180"/>
<text text-anchor="middle" x="36" y="-140.3" font-family="Times,serif" font-size="14.00">Domination</text>
</g>
<!-- Bobby&#45;&#45;Domination -->
<g id="edge30" class="edge"><title>Bobby&#45;&#45;Domination</title>
<path fill="none" stroke="#53868b" d="M878.903,-708C713.499,-708 36,-708 36,-708 36,-708 36,-304.619 36,-180.139"/>
</g>
<!-- Bobby&#45;&#45;Cautious -->
<g id="edge32" class="edge"><title>Bobby&#45;&#45;Cautious</title>
<path fill="none" stroke="#53868b" d="M951.182,-658C970.361,-658 990,-658 990,-658 990,-658 990,-515.117 990,-477.164"/>
</g>
<!-- Stoic -->
<g id="node16" class="node"><title>Stoic</title>
<polygon fill="none" stroke="black" points="766,-504 730,-450 802,-450 766,-504"/>
<text text-anchor="middle" x="766" y="-464.3" font-family="Times,serif" font-size="14.00">Stoic</text>
</g>
<!-- Bobby&#45;&#45;Stoic -->
<g id="edge38" class="edge"><title>Bobby&#45;&#45;Stoic</title>
<path fill="none" stroke="#53868b" d="M878.931,-660C834.834,-660 766,-660 766,-660 766,-660 766,-559.731 766,-504.114"/>
</g>
<!-- The\nSidhe -->
<g id="node22" class="node"><title>The\nSidhe</title>
<polygon fill="none" stroke="black" points="119,-72 83,-18 155,-18 119,-72"/>
<text text-anchor="middle" x="119" y="-39.8" font-family="Times,serif" font-size="14.00">The</text>
<text text-anchor="middle" x="119" y="-24.8" font-family="Times,serif" font-size="14.00">Sidhe</text>
</g>
<!-- Bobby&#45;&#45;The\nSidhe -->
<g id="edge28" class="edge"><title>Bobby&#45;&#45;The\nSidhe</title>
<path fill="none" stroke="#53868b" d="M878.814,-696C720.584,-696 97.4,-696 97.4,-696 97.4,-696 97.4,-93.965 97.4,-39.8759"/>
</g>
<!-- Technology -->
<g id="node23" class="node"><title>Technology</title>
<polygon fill="none" stroke="black" points="1389,-180 1353,-126 1425,-126 1389,-180"/>
<text text-anchor="middle" x="1389" y="-140.3" font-family="Times,serif" font-size="14.00">Technology</text>
</g>
<!-- Bobby&#45;&#45;Technology -->
<g id="edge50" class="edge"><title>Bobby&#45;&#45;Technology</title>
<path fill="none" stroke="#53868b" d="M915,-647.714C915,-635.078 915,-624 915,-624 915,-624 1385,-624 1385,-624 1385,-624 1385,-279.11 1385,-174.026"/>
</g>
<!-- Bobby&#45;&#45;Mercenary -->
<g id="edge34" class="edge"><title>Bobby&#45;&#45;Mercenary</title>
<path fill="none" stroke="#53868b" d="M951.022,-668C1038.42,-668 1254.6,-668 1254.6,-668 1254.6,-668 1254.6,-360 1254.6,-360 1254.6,-360 1266.08,-360 1277.74,-360"/>
</g>
<!-- True\nNeutral -->
<g id="node31" class="node"><title>True\nNeutral</title>
<polygon fill="none" stroke="black" points="202,-288 166,-234 238,-234 202,-288"/>
<text text-anchor="middle" x="202" y="-255.8" font-family="Times,serif" font-size="14.00">True</text>
<text text-anchor="middle" x="202" y="-240.8" font-family="Times,serif" font-size="14.00">Neutral</text>
</g>
<!-- Bobby&#45;&#45;True\nNeutral -->
<g id="edge44" class="edge"><title>Bobby&#45;&#45;True\nNeutral</title>
<path fill="none" stroke="#53868b" d="M878.75,-684C731.249,-684 184,-684 184,-684 184,-684 184,-323.06 184,-261.023"/>
</g>
<!-- Bobby&#45;&#45;Megan -->
<g id="edge40" class="edge"><title>Bobby&#45;&#45;Megan</title>
<path fill="none" stroke="#53868b" d="M951.143,-678C1039.41,-678 1258.8,-678 1258.8,-678 1258.8,-678 1258.8,-588 1258.8,-588 1258.8,-588 1809.64,-588 1953.81,-588"/>
</g>
<!-- Bobby&#45;&#45;Wilem -->
<g id="edge46" class="edge"><title>Bobby&#45;&#45;Wilem</title>
<path fill="none" stroke="#53868b" d="M933,-647.619C933,-640.925 933,-636 933,-636 933,-636 1437,-636 1437,-636 1437,-636 1437,-376.986 1437,-284.409"/>
</g>
<!-- Reggie -->
<g id="node38" class="node"><title>Reggie</title>
<ellipse fill="none" stroke="black" cx="536" cy="-576" rx="36" ry="36"/>
<text text-anchor="middle" x="536" y="-572.3" font-family="Times,serif" font-size="14.00">Reggie</text>
</g>
<!-- Bobby&#45;&#45;Reggie -->
<g id="edge42" class="edge"><title>Bobby&#45;&#45;Reggie</title>
<path fill="none" stroke="#53868b" d="M878.66,-672C783.799,-672 536,-672 536,-672 536,-672 536,-639.26 536,-612.02"/>
</g>
<!-- Viet\nDistrict -->
<g id="node50" class="node"><title>Viet\nDistrict</title>
<polygon fill="none" stroke="black" points="1302,-504 1266,-468 1302,-432 1338,-468 1302,-504"/>
<text text-anchor="middle" x="1302" y="-471.8" font-family="Times,serif" font-size="14.00">Viet</text>
<text text-anchor="middle" x="1302" y="-456.8" font-family="Times,serif" font-size="14.00">District</text>
</g>
<!-- Bobby&#45;&#45;Viet\nDistrict -->
<g id="edge36" class="edge"><title>Bobby&#45;&#45;Viet\nDistrict</title>
<path fill="none" stroke="#53868b" d="M951.036,-689C1043.22,-689 1280.4,-689 1280.4,-689 1280.4,-689 1280.4,-531.667 1280.4,-482.5"/>
</g>
<!-- Vecklethorp -->
<g id="node5" class="node"><title>Vecklethorp</title>
<polygon fill="darkgoldenrod" stroke="black" points="1696.25,-504 1613.75,-504 1613.75,-432 1696.25,-432 1696.25,-504"/>
<text text-anchor="middle" x="1655" y="-464.3" font-family="Times,serif" font-size="14.00">Vecklethorp</text>
</g>
<!-- Sebastian&#45;&#45;Vecklethorp -->
<g id="edge69" class="edge"><title>Sebastian&#45;&#45;Vecklethorp</title>
<path fill="none" stroke="#8b0000" d="M887,-539.714C887,-527.078 887,-516 887,-516 887,-516 1622.83,-516 1622.83,-516 1622.83,-516 1622.83,-511.075 1622.83,-504.381"/>
</g>
<!-- The\nSearch -->
<g id="node8" class="node"><title>The\nSearch</title>
<polygon fill="none" stroke="black" points="1734,-288 1698,-234 1770,-234 1734,-288"/>
<text text-anchor="middle" x="1734" y="-255.8" font-family="Times,serif" font-size="14.00">The</text>
<text text-anchor="middle" x="1734" y="-240.8" font-family="Times,serif" font-size="14.00">Search</text>
</g>
<!-- Sebastian&#45;&#45;The\nSearch -->
<g id="edge53" class="edge"><title>Sebastian&#45;&#45;The\nSearch</title>
<path fill="none" stroke="#8b0000" d="M895,-539.619C895,-532.925 895,-528 895,-528 895,-528 1715.33,-528 1715.33,-528 1715.33,-528 1715.33,-306.183 1715.33,-260.26"/>
</g>
<!-- Sebastian&#45;&#45;Cautious -->
<g id="edge59" class="edge"><title>Sebastian&#45;&#45;Cautious</title>
<path fill="none" stroke="#8b0000" d="M943,-539.996C943,-504.649 943,-456 943,-456 943,-456 959.505,-456 975.881,-456"/>
</g>
<!-- Sebastian&#45;&#45;Stoic -->
<g id="edge61" class="edge"><title>Sebastian&#45;&#45;Stoic</title>
<path fill="none" stroke="#8b0000" d="M903,-539.98C903,-512.74 903,-480 903,-480 903,-480 818.544,-480 782.254,-480"/>
</g>
<!-- Diseased -->
<g id="node24" class="node"><title>Diseased</title>
<polygon fill="none" stroke="black" points="766,-288 730,-234 802,-234 766,-288"/>
<text text-anchor="middle" x="766" y="-248.3" font-family="Times,serif" font-size="14.00">Diseased</text>
</g>
<!-- Sebastian&#45;&#45;Diseased -->
<g id="edge57" class="edge"><title>Sebastian&#45;&#45;Diseased</title>
<path fill="none" stroke="#8b0000" d="M911,-539.905C911,-457.777 911,-264 911,-264 911,-264 819.824,-264 782.072,-264"/>
</g>
<!-- Ley\nLines -->
<g id="node25" class="node"><title>Ley\nLines</title>
<polygon fill="none" stroke="black" points="772,-72 736,-18 808,-18 772,-72"/>
<text text-anchor="middle" x="772" y="-39.8" font-family="Times,serif" font-size="14.00">Ley</text>
<text text-anchor="middle" x="772" y="-24.8" font-family="Times,serif" font-size="14.00">Lines</text>
</g>
<!-- Sebastian&#45;&#45;Ley\nLines -->
<g id="edge65" class="edge"><title>Sebastian&#45;&#45;Ley\nLines</title>
<path fill="none" stroke="#8b0000" d="M919,-539.731C919,-418.656 919,-36 919,-36 919,-36 838.026,-36 796.274,-36"/>
</g>
<!-- Magic -->
<g id="node26" class="node"><title>Magic</title>
<polygon fill="none" stroke="black" points="1179,-72 1143,-18 1215,-18 1179,-72"/>
<text text-anchor="middle" x="1179" y="-32.3" font-family="Times,serif" font-size="14.00">Magic</text>
</g>
<!-- Sebastian&#45;&#45;Magic -->
<g id="edge63" class="edge"><title>Sebastian&#45;&#45;Magic</title>
<path fill="none" stroke="#8b0000" d="M927,-539.708C927,-421.33 927,-54 927,-54 927,-54 1116.51,-54 1166.85,-54"/>
</g>
<!-- White\nCouncil -->
<g id="node27" class="node"><title>White\nCouncil</title>
<polygon fill="none" stroke="black" points="1027,-288 991,-234 1063,-234 1027,-288"/>
<text text-anchor="middle" x="1027" y="-255.8" font-family="Times,serif" font-size="14.00">White</text>
<text text-anchor="middle" x="1027" y="-240.8" font-family="Times,serif" font-size="14.00">Council</text>
</g>
<!-- Sebastian&#45;&#45;White\nCouncil -->
<g id="edge55" class="edge"><title>Sebastian&#45;&#45;White\nCouncil</title>
<path fill="none" stroke="#8b0000" d="M935,-539.723C935,-452.841 935,-240 935,-240 935,-240 968.293,-240 994.823,-240"/>
</g>
<!-- Bartholomew -->
<g id="node39" class="node"><title>Bartholomew</title>
<ellipse fill="none" stroke="black" cx="1098" cy="-468" rx="36" ry="36"/>
<text text-anchor="middle" x="1098" y="-464.3" font-family="Times,serif" font-size="14.00">Bartholomew</text>
</g>
<!-- Sebastian&#45;&#45;Bartholomew -->
<g id="edge71" class="edge"><title>Sebastian&#45;&#45;Bartholomew</title>
<path fill="none" stroke="#8b0000" d="M951.155,-564C1004.49,-564 1098,-564 1098,-564 1098,-564 1098,-531.26 1098,-504.02"/>
</g>
<!-- Sebastian&#45;&#45;Metro\nWest -->
<g id="edge67" class="edge"><title>Sebastian&#45;&#45;Metro\nWest</title>
<path fill="none" stroke="#8b0000" d="M878.985,-576C806.529,-576 650,-576 650,-576 650,-576 650,-524.079 650,-492.237"/>
</g>
<!-- Vecklethorp&#45;&#45;Mandy -->
<g id="edge84" class="edge"><title>Vecklethorp&#45;&#45;Mandy</title>
<path fill="none" stroke="darkgoldenrod" d="M1631.92,-504.155C1631.92,-576.457 1631.92,-732 1631.92,-732 1631.92,-732 1533,-732 1533,-732 1533,-732 1533,-814.596 1533,-863.96"/>
</g>
<!-- Vecklethorp&#45;&#45;The\nSearch -->
<g id="edge74" class="edge"><title>Vecklethorp&#45;&#45;The\nSearch</title>
<path fill="none" stroke="darkgoldenrod" d="M1689.75,-431.846C1689.75,-370.357 1689.75,-252 1689.75,-252 1689.75,-252 1699.47,-252 1709.8,-252"/>
</g>
<!-- Optimistic -->
<g id="node20" class="node"><title>Optimistic</title>
<polygon fill="none" stroke="black" points="664,-180 628,-126 700,-126 664,-180"/>
<text text-anchor="middle" x="664" y="-140.3" font-family="Times,serif" font-size="14.00">Optimistic</text>
</g>
<!-- Vecklethorp&#45;&#45;Optimistic -->
<g id="edge92" class="edge"><title>Vecklethorp&#45;&#45;Optimistic</title>
<path fill="none" stroke="darkgoldenrod" d="M1655.2,-431.699C1655.2,-416.81 1655.2,-403 1655.2,-403 1655.2,-403 691.333,-403 691.333,-403 691.333,-403 691.333,-148.031 691.333,-144.047"/>
</g>
<!-- Vecklethorp&#45;&#45;Magic -->
<g id="edge76" class="edge"><title>Vecklethorp&#45;&#45;Magic</title>
<path fill="none" stroke="darkgoldenrod" d="M1683.25,-431.666C1683.25,-325.625 1683.25,-24 1683.25,-24 1683.25,-24 1322.6,-24 1211.31,-24"/>
</g>
<!-- Skepticism -->
<g id="node28" class="node"><title>Skepticism</title>
<polygon fill="none" stroke="black" points="1848,-180 1812,-126 1884,-126 1848,-180"/>
<text text-anchor="middle" x="1848" y="-140.3" font-family="Times,serif" font-size="14.00">Skepticism</text>
</g>
<!-- Vecklethorp&#45;&#45;Skepticism -->
<g id="edge80" class="edge"><title>Vecklethorp&#45;&#45;Skepticism</title>
<path fill="none" stroke="darkgoldenrod" d="M1686.5,-431.998C1686.5,-351.109 1686.5,-162 1686.5,-162 1686.5,-162 1798.3,-162 1835.86,-162"/>
</g>
<!-- Vecklethorp&#45;&#45;Hunger -->
<g id="edge86" class="edge"><title>Vecklethorp&#45;&#45;Hunger</title>
<path fill="none" stroke="darkgoldenrod" d="M1693,-431.644C1693,-383.881 1693,-306 1693,-306 1693,-306 2102,-306 2102,-306 2102,-306 2102,-285.948 2102,-270.282"/>
</g>
<!-- Vecklethorp&#45;&#45;Mercenary -->
<g id="edge90" class="edge"><title>Vecklethorp&#45;&#45;Mercenary</title>
<path fill="none" stroke="darkgoldenrod" d="M1613.6,-480C1568.75,-480 1503.5,-480 1503.5,-480 1503.5,-480 1503.5,-360 1503.5,-360 1503.5,-360 1379.9,-360 1326.31,-360"/>
</g>
<!-- Vecklethorp&#45;&#45;True\nNeutral -->
<g id="edge78" class="edge"><title>Vecklethorp&#45;&#45;True\nNeutral</title>
<path fill="none" stroke="darkgoldenrod" d="M1630.4,-431.927C1630.4,-420.132 1630.4,-410 1630.4,-410 1630.4,-410 202,-410 202,-410 202,-410 202,-334.895 202,-288.248"/>
</g>
<!-- Tyrion -->
<g id="node33" class="node"><title>Tyrion</title>
<ellipse fill="none" stroke="black" cx="1582" cy="-360" rx="36" ry="36"/>
<text text-anchor="middle" x="1582" y="-356.3" font-family="Times,serif" font-size="14.00">Tyrion</text>
</g>
<!-- Vecklethorp&#45;&#45;Tyrion -->
<g id="edge88" class="edge"><title>Vecklethorp&#45;&#45;Tyrion</title>
<path fill="none" stroke="darkgoldenrod" d="M1613.63,-456C1601.48,-456 1591.38,-456 1591.38,-456 1591.38,-456 1591.38,-422.379 1591.38,-394.93"/>
</g>
<!-- UCF -->
<g id="node44" class="node"><title>UCF</title>
<polygon fill="none" stroke="black" points="1644,-288 1608,-252 1644,-216 1680,-252 1644,-288"/>
<text text-anchor="middle" x="1644" y="-248.3" font-family="Times,serif" font-size="14.00">UCF</text>
</g>
<!-- Vecklethorp&#45;&#45;UCF -->
<g id="edge82" class="edge"><title>Vecklethorp&#45;&#45;UCF</title>
<path fill="none" stroke="darkgoldenrod" d="M1667.6,-431.846C1667.6,-382.606 1667.6,-296.901 1667.6,-264.707"/>
</g>
<!-- Sir\nWyngard&#45;&#45;Bobby -->
<g id="edge111" class="edge"><title>Sir\nWyngard&#45;&#45;Bobby</title>
<path fill="none" stroke="#458b00" d="M1236,-755.836C1236,-733.47 1236,-709 1236,-709 1236,-709 1035.15,-709 951.199,-709"/>
</g>
<!-- Sir\nWyngard&#45;&#45;Domination -->
<g id="edge97" class="edge"><title>Sir\nWyngard&#45;&#45;Domination</title>
<path fill="none" stroke="#458b00" d="M1230,-810C1025.37,-810 18,-810 18,-810 18,-810 18,-234.364 18,-153.415"/>
</g>
<!-- Vendetta -->
<g id="node10" class="node"><title>Vendetta</title>
<polygon fill="none" stroke="black" points="1299,-180 1263,-126 1335,-126 1299,-180"/>
<text text-anchor="middle" x="1299" y="-140.3" font-family="Times,serif" font-size="14.00">Vendetta</text>
</g>
<!-- Sir\nWyngard&#45;&#45;Vendetta -->
<g id="edge95" class="edge"><title>Sir\nWyngard&#45;&#45;Vendetta</title>
<path fill="none" stroke="#458b00" d="M1250.4,-755.984C1250.4,-621.442 1250.4,-156 1250.4,-156 1250.4,-156 1268.68,-156 1282.82,-156"/>
</g>
<!-- Sir\nWyngard&#45;&#45;Opportunist -->
<g id="edge107" class="edge"><title>Sir\nWyngard&#45;&#45;Opportunist</title>
<path fill="none" stroke="#458b00" d="M1294.8,-755.777C1294.8,-729.665 1294.8,-699 1294.8,-699 1294.8,-699 1347.2,-699 1373,-699"/>
</g>
<!-- Sir\nWyngard&#45;&#45;Cautious -->
<g id="edge99" class="edge"><title>Sir\nWyngard&#45;&#45;Cautious</title>
<path fill="none" stroke="#458b00" d="M1229.81,-774C1162.76,-774 1026,-774 1026,-774 1026,-774 1026,-528.073 1026,-477.158"/>
</g>
<!-- Sir\nWyngard&#45;&#45;Social -->
<g id="edge101" class="edge"><title>Sir\nWyngard&#45;&#45;Social</title>
<path fill="none" stroke="#458b00" d="M1302.19,-799C1369.24,-799 1506,-799 1506,-799 1506,-799 1506,-740.235 1506,-706.72"/>
</g>
<!-- Protective -->
<g id="node14" class="node"><title>Protective</title>
<polygon fill="none" stroke="black" points="337,-180 301,-126 373,-126 337,-180"/>
<text text-anchor="middle" x="337" y="-140.3" font-family="Times,serif" font-size="14.00">Protective</text>
</g>
<!-- Sir\nWyngard&#45;&#45;Protective -->
<g id="edge109" class="edge"><title>Sir\nWyngard&#45;&#45;Protective</title>
<path fill="none" stroke="#458b00" d="M1246.2,-755.724C1246.2,-627.744 1246.2,-205 1246.2,-205 1246.2,-205 364,-205 364,-205 364,-205 364,-145.891 364,-144.044"/>
</g>
<!-- Sir\nWyngard&#45;&#45;Optimistic -->
<g id="edge115" class="edge"><title>Sir\nWyngard&#45;&#45;Optimistic</title>
<path fill="none" stroke="#458b00" d="M1229.95,-792C1102.77,-792 682.667,-792 682.667,-792 682.667,-792 682.667,-227.205 682.667,-152.193"/>
</g>
<!-- Sir\nWyngard&#45;&#45;Wilem -->
<g id="edge103" class="edge"><title>Sir\nWyngard&#45;&#45;Wilem</title>
<path fill="none" stroke="#458b00" d="M1302.11,-784C1355.95,-784 1451,-784 1451,-784 1451,-784 1451,-407.887 1451,-288.148"/>
</g>
<!-- Sir\nWyngard&#45;&#45;Viet\nDistrict -->
<g id="edge113" class="edge"><title>Sir\nWyngard&#45;&#45;Viet\nDistrict</title>
<path fill="none" stroke="#458b00" d="M1287.6,-755.776C1287.6,-688.073 1287.6,-544.264 1287.6,-489.652"/>
</g>
<!-- City\nHall -->
<g id="node53" class="node"><title>City\nHall</title>
<polygon fill="none" stroke="black" points="1760,-720 1724,-684 1760,-648 1796,-684 1760,-720"/>
<text text-anchor="middle" x="1760" y="-687.8" font-family="Times,serif" font-size="14.00">City</text>
<text text-anchor="middle" x="1760" y="-672.8" font-family="Times,serif" font-size="14.00">Hall</text>
</g>
<!-- Sir\nWyngard&#45;&#45;City\nHall -->
<g id="edge105" class="edge"><title>Sir\nWyngard&#45;&#45;City\nHall</title>
<path fill="none" stroke="#458b00" d="M1273.2,-755.619C1273.2,-748.925 1273.2,-744 1273.2,-744 1273.2,-744 1748,-744 1748,-744 1748,-744 1748,-724.751 1748,-708.059"/>
</g>
<!-- Reckless -->
<g id="node15" class="node"><title>Reckless</title>
<polygon fill="none" stroke="black" points="562,-288 526,-234 598,-234 562,-288"/>
<text text-anchor="middle" x="562" y="-248.3" font-family="Times,serif" font-size="14.00">Reckless</text>
</g>
<!-- Explode -->
<g id="node17" class="node"><title>Explode</title>
<polygon fill="none" stroke="black" points="382,-288 346,-234 418,-234 382,-288"/>
<text text-anchor="middle" x="382" y="-248.3" font-family="Times,serif" font-size="14.00">Explode</text>
</g>
<!-- Beauty -->
<g id="node18" class="node"><title>Beauty</title>
<polygon fill="none" stroke="black" points="1605,-936 1569,-882 1641,-882 1605,-936"/>
<text text-anchor="middle" x="1605" y="-896.3" font-family="Times,serif" font-size="14.00">Beauty</text>
</g>
<!-- Turf\nWar -->
<g id="node21" class="node"><title>Turf\nWar</title>
<polygon fill="none" stroke="black" points="2090,-396 2054,-342 2126,-342 2090,-396"/>
<text text-anchor="middle" x="2090" y="-363.8" font-family="Times,serif" font-size="14.00">Turf</text>
<text text-anchor="middle" x="2090" y="-348.8" font-family="Times,serif" font-size="14.00">War</text>
</g>
<!-- Tyrion&#45;&#45;The\nSearch -->
<g id="edge118" class="edge"><title>Tyrion&#45;&#45;The\nSearch</title>
<path fill="none" stroke="purple" d="M1616.07,-348C1652.98,-348 1706.67,-348 1706.67,-348 1706.67,-348 1706.67,-254.977 1706.67,-252.07"/>
</g>
<!-- Tyrion&#45;&#45;Diseased -->
<g id="edge124" class="edge"><title>Tyrion&#45;&#45;Diseased</title>
<path fill="none" stroke="purple" d="M1560.67,-330.971C1560.67,-320.862 1560.67,-312 1560.67,-312 1560.67,-312 766,-312 766,-312 766,-312 766,-300.922 766,-288.286"/>
</g>
<!-- Tyrion&#45;&#45;Wilem -->
<g id="edge126" class="edge"><title>Tyrion&#45;&#45;Wilem</title>
<path fill="none" stroke="purple" d="M1550.72,-342C1522.04,-342 1484,-342 1484,-342 1484,-342 1484,-297.01 1484,-270.648"/>
</g>
<!-- Tyrion&#45;&#45;UCF -->
<g id="edge122" class="edge"><title>Tyrion&#45;&#45;UCF</title>
<path fill="none" stroke="purple" d="M1613,-341.679C1613,-316.403 1613,-272.249 1613,-257.198"/>
</g>
<!-- Downtown\nLibrary -->
<g id="node54" class="node"><title>Downtown\nLibrary</title>
<polygon fill="none" stroke="black" points="1554,-288 1518,-252 1554,-216 1590,-252 1554,-288"/>
<text text-anchor="middle" x="1554" y="-255.8" font-family="Times,serif" font-size="14.00">Downtown</text>
<text text-anchor="middle" x="1554" y="-240.8" font-family="Times,serif" font-size="14.00">Library</text>
</g>
<!-- Tyrion&#45;&#45;Downtown\nLibrary -->
<g id="edge120" class="edge"><title>Tyrion&#45;&#45;Downtown\nLibrary</title>
<path fill="none" stroke="purple" d="M1575.33,-324.337C1575.33,-304.799 1575.33,-281.626 1575.33,-266.871"/>
</g>
<!-- Megan&#45;&#45;The\nSearch -->
<g id="edge134" class="edge"><title>Megan&#45;&#45;The\nSearch</title>
<path fill="none" stroke="purple" d="M1953.98,-564C1887.55,-564 1747,-564 1747,-564 1747,-564 1747,-333.58 1747,-268.774"/>
</g>
<!-- Megan&#45;&#45;Turf\nWar -->
<g id="edge136" class="edge"><title>Megan&#45;&#45;Turf\nWar</title>
<path fill="none" stroke="purple" d="M2000,-541.855C2000,-483.781 2000,-372 2000,-372 2000,-372 2048.02,-372 2073.91,-372"/>
</g>
<!-- Megan&#45;&#45;Hunger -->
<g id="edge138" class="edge"><title>Megan&#45;&#45;Hunger</title>
<path fill="none" stroke="purple" d="M1976,-542.03C1976,-457.415 1976,-244 1976,-244 1976,-244 2026.86,-244 2060.64,-244"/>
</g>
<!-- Universal\nStudios -->
<g id="node45" class="node"><title>Universal\nStudios</title>
<polygon fill="none" stroke="black" points="2081,-504 2045,-468 2081,-432 2117,-468 2081,-504"/>
<text text-anchor="middle" x="2081" y="-471.8" font-family="Times,serif" font-size="14.00">Universal</text>
<text text-anchor="middle" x="2081" y="-456.8" font-family="Times,serif" font-size="14.00">Studios</text>
</g>
<!-- Megan&#45;&#45;Universal\nStudios -->
<g id="edge140" class="edge"><title>Megan&#45;&#45;Universal\nStudios</title>
<path fill="none" stroke="purple" d="M2024.22,-576C2050.34,-576 2081,-576 2081,-576 2081,-576 2081,-535.638 2081,-504.263"/>
</g>
<!-- Wilem&#45;&#45;Vendetta -->
<g id="edge128" class="edge"><title>Wilem&#45;&#45;Vendetta</title>
<path fill="none" stroke="purple" d="M1418.78,-240C1373.81,-240 1300.5,-240 1300.5,-240 1300.5,-240 1300.5,-205.485 1300.5,-177.846"/>
</g>
<!-- Wilem&#45;&#45;Magic -->
<g id="edge132" class="edge"><title>Wilem&#45;&#45;Magic</title>
<path fill="none" stroke="purple" d="M1418.86,-264C1347.19,-264 1187.67,-264 1187.67,-264 1187.67,-264 1187.67,-117.081 1187.67,-59.1166"/>
</g>
<!-- Disney -->
<g id="node46" class="node"><title>Disney</title>
<polygon fill="none" stroke="black" points="804,-180 768,-144 804,-108 840,-144 804,-180"/>
<text text-anchor="middle" x="804" y="-140.3" font-family="Times,serif" font-size="14.00">Disney</text>
</g>
<!-- Wilem&#45;&#45;Disney -->
<g id="edge130" class="edge"><title>Wilem&#45;&#45;Disney</title>
<path fill="none" stroke="purple" d="M1421,-235.261C1421,-220.059 1421,-200 1421,-200 1421,-200 821,-200 821,-200 821,-200 821,-179.471 821,-163.272"/>
</g>
<!-- Black\nCoats -->
<g id="node36" class="node"><title>Black\nCoats</title>
<ellipse fill="none" stroke="black" cx="1206" cy="-576" rx="36" ry="36"/>
<text text-anchor="middle" x="1206" y="-579.8" font-family="Times,serif" font-size="14.00">Black</text>
<text text-anchor="middle" x="1206" y="-564.8" font-family="Times,serif" font-size="14.00">Coats</text>
</g>
<!-- Black\nCoats&#45;&#45;Magic -->
<g id="edge142" class="edge"><title>Black\nCoats&#45;&#45;Magic</title>
<path fill="none" stroke="purple" d="M1224,-544.552C1224,-430.884 1224,-48 1224,-48 1224,-48 1208.14,-48 1195.25,-48"/>
</g>
<!-- Black\nCoats&#45;&#45;White\nCouncil -->
<g id="edge144" class="edge"><title>Black\nCoats&#45;&#45;White\nCouncil</title>
<path fill="none" stroke="purple" d="M1171.77,-588C1125.84,-588 1050,-588 1050,-588 1050,-588 1050,-280.255 1050,-253.808"/>
</g>
<!-- Black\nCoats&#45;&#45;Bartholomew -->
<g id="edge148" class="edge"><title>Black\nCoats&#45;&#45;Bartholomew</title>
<path fill="none" stroke="purple" d="M1190,-543.508C1190,-517.729 1190,-486 1190,-486 1190,-486 1156.06,-486 1129.4,-486"/>
</g>
<!-- Black\nCoats&#45;&#45;Viet\nDistrict -->
<g id="edge146" class="edge"><title>Black\nCoats&#45;&#45;Viet\nDistrict</title>
<path fill="none" stroke="purple" d="M1233,-552.031C1233,-520.214 1233,-468 1233,-468 1233,-468 1249.19,-468 1265.88,-468"/>
</g>
<!-- Pablo\nEscobar -->
<g id="node37" class="node"><title>Pablo\nEscobar</title>
<ellipse fill="none" stroke="black" cx="472" cy="-468" rx="36" ry="36"/>
<text text-anchor="middle" x="472" y="-471.8" font-family="Times,serif" font-size="14.00">Pablo</text>
<text text-anchor="middle" x="472" y="-456.8" font-family="Times,serif" font-size="14.00">Escobar</text>
</g>
<!-- Pablo\nEscobar&#45;&#45;The\nSidhe -->
<g id="edge170" class="edge"><title>Pablo\nEscobar&#45;&#45;The\nSidhe</title>
<path fill="none" stroke="purple" d="M437.897,-480C350.657,-480 126.2,-480 126.2,-480 126.2,-480 126.2,-155.81 126.2,-61.4661"/>
</g>
<!-- Pablo\nEscobar&#45;&#45;Hunger -->
<g id="edge174" class="edge"><title>Pablo\nEscobar&#45;&#45;Hunger</title>
<path fill="none" stroke="purple" d="M490,-436.491C490,-429.438 490,-424 490,-424 490,-424 2031,-424 2031,-424 2031,-424 2031,-259 2031,-259 2031,-259 2053.19,-259 2070.35,-259"/>
</g>
<!-- Voris -->
<g id="node41" class="node"><title>Voris</title>
<ellipse fill="none" stroke="black" cx="472" cy="-360" rx="36" ry="36"/>
<text text-anchor="middle" x="472" y="-356.3" font-family="Times,serif" font-size="14.00">Voris</text>
</g>
<!-- Pablo\nEscobar&#45;&#45;Voris -->
<g id="edge176" class="edge"><title>Pablo\nEscobar&#45;&#45;Voris</title>
<path fill="none" stroke="purple" d="M454,-436.762C454,-422.558 454,-405.782 454,-391.542"/>
</g>
<!-- Pablo\nEscobar&#45;&#45;UCF -->
<g id="edge168" class="edge"><title>Pablo\nEscobar&#45;&#45;UCF</title>
<path fill="none" stroke="purple" d="M472,-431.751C472,-423.444 472,-417 472,-417 472,-417 1642.8,-417 1642.8,-417 1642.8,-417 1642.8,-335.427 1642.8,-286.992"/>
</g>
<!-- The\nPier -->
<g id="node47" class="node"><title>The\nPier</title>
<polygon fill="none" stroke="black" points="314,-396 278,-360 314,-324 350,-360 314,-396"/>
<text text-anchor="middle" x="314" y="-363.8" font-family="Times,serif" font-size="14.00">The</text>
<text text-anchor="middle" x="314" y="-348.8" font-family="Times,serif" font-size="14.00">Pier</text>
</g>
<!-- Pablo\nEscobar&#45;&#45;The\nPier -->
<g id="edge172" class="edge"><title>Pablo\nEscobar&#45;&#45;The\nPier</title>
<path fill="none" stroke="purple" d="M437.716,-456C391.247,-456 314,-456 314,-456 314,-456 314,-423.26 314,-396.02"/>
</g>
<!-- Reggie&#45;&#45;The\nSidhe -->
<g id="edge164" class="edge"><title>Reggie&#45;&#45;The\nSidhe</title>
<path fill="none" stroke="purple" d="M499.833,-576C397.25,-576 111.8,-576 111.8,-576 111.8,-576 111.8,-168.081 111.8,-61.321"/>
</g>
<!-- Reggie&#45;&#45;Magic -->
<g id="edge162" class="edge"><title>Reggie&#45;&#45;Magic</title>
<path fill="none" stroke="purple" d="M556.667,-546.404C556.667,-478.636 556.667,-318 556.667,-318 556.667,-318 1165.33,-318 1165.33,-318 1165.33,-318 1165.33,-110.681 1165.33,-51.5632"/>
</g>
<!-- Reggie&#45;&#45;Pablo\nEscobar -->
<g id="edge166" class="edge"><title>Reggie&#45;&#45;Pablo\nEscobar</title>
<path fill="none" stroke="purple" d="M504,-559.125C504,-538.835 504,-504.993 504,-484.757"/>
</g>
<!-- Lake\nJessup -->
<g id="node49" class="node"><title>Lake\nJessup</title>
<polygon fill="none" stroke="black" points="501,-180 465,-144 501,-108 537,-144 501,-180"/>
<text text-anchor="middle" x="501" y="-147.8" font-family="Times,serif" font-size="14.00">Lake</text>
<text text-anchor="middle" x="501" y="-132.8" font-family="Times,serif" font-size="14.00">Jessup</text>
</g>
<!-- Reggie&#45;&#45;Lake\nJessup -->
<g id="edge160" class="edge"><title>Reggie&#45;&#45;Lake\nJessup</title>
<path fill="none" stroke="purple" d="M517,-545.278C517,-462.005 517,-233.58 517,-164.23"/>
</g>
<!-- Bartholomew&#45;&#45;Vendetta -->
<g id="edge158" class="edge"><title>Bartholomew&#45;&#45;Vendetta</title>
<path fill="none" stroke="purple" d="M1116.25,-436.692C1116.25,-353.28 1116.25,-132 1116.25,-132 1116.25,-132 1214.28,-132 1266.75,-132"/>
</g>
<!-- Bartholomew&#45;&#45;Protective -->
<g id="edge156" class="edge"><title>Bartholomew&#45;&#45;Protective</title>
<path fill="none" stroke="purple" d="M1098.5,-431.855C1098.5,-360.849 1098.5,-210 1098.5,-210 1098.5,-210 355,-210 355,-210 355,-210 355,-171.312 355,-153.177"/>
</g>
<!-- Bartholomew&#45;&#45;Theft -->
<g id="edge154" class="edge"><title>Bartholomew&#45;&#45;Theft</title>
<path fill="none" stroke="purple" d="M1129.22,-450C1139.65,-450 1148.67,-450 1148.67,-450 1148.67,-450 1148.67,-362.791 1148.67,-360.065"/>
</g>
<!-- Bartholomew&#45;&#45;White\nCouncil -->
<g id="edge150" class="edge"><title>Bartholomew&#45;&#45;White\nCouncil</title>
<path fill="none" stroke="purple" d="M1061.84,-468C1058.31,-468 1056,-468 1056,-468 1056,-468 1056,-258.697 1056,-252.157"/>
</g>
<!-- Zombie\nFortress -->
<g id="node55" class="node"><title>Zombie\nFortress</title>
<polygon fill="none" stroke="black" points="1008,-396 972,-360 1008,-324 1044,-360 1008,-396"/>
<text text-anchor="middle" x="1008" y="-363.8" font-family="Times,serif" font-size="14.00">Zombie</text>
<text text-anchor="middle" x="1008" y="-348.8" font-family="Times,serif" font-size="14.00">Fortress</text>
</g>
<!-- Bartholomew&#45;&#45;Zombie\nFortress -->
<g id="edge152" class="edge"><title>Bartholomew&#45;&#45;Zombie\nFortress</title>
<path fill="none" stroke="purple" d="M1080.75,-436.181C1080.75,-404.323 1080.75,-360 1080.75,-360 1080.75,-360 1062.56,-360 1044.38,-360"/>
</g>
<!-- Boshnik -->
<g id="node40" class="node"><title>Boshnik</title>
<ellipse fill="none" stroke="black" cx="1760" cy="-792" rx="36" ry="36"/>
<text text-anchor="middle" x="1760" y="-788.3" font-family="Times,serif" font-size="14.00">Boshnik</text>
</g>
<!-- Boshnik&#45;&#45;Social -->
<g id="edge198" class="edge"><title>Boshnik&#45;&#45;Social</title>
<path fill="none" stroke="purple" d="M1731.5,-770C1672.41,-770 1542,-770 1542,-770 1542,-770 1542,-686.667 1542,-684.062"/>
</g>
<!-- Boshnik&#45;&#45;Skepticism -->
<g id="edge202" class="edge"><title>Boshnik&#45;&#45;Skepticism</title>
<path fill="none" stroke="purple" d="M1796.05,-792C1820.35,-792 1848,-792 1848,-792 1848,-792 1848,-316.693 1848,-180.228"/>
</g>
<!-- Boshnik&#45;&#45;City\nHall -->
<g id="edge200" class="edge"><title>Boshnik&#45;&#45;City\nHall</title>
<path fill="none" stroke="purple" d="M1772,-757.828C1772,-741.637 1772,-722.684 1772,-708.036"/>
</g>
<!-- Voris&#45;&#45;Reckless -->
<g id="edge184" class="edge"><title>Voris&#45;&#45;Reckless</title>
<path fill="none" stroke="purple" d="M508.291,-360C525.066,-360 541.333,-360 541.333,-360 541.333,-360 541.333,-278.782 541.333,-257.209"/>
</g>
<!-- Voris&#45;&#45;Explode -->
<g id="edge182" class="edge"><title>Voris&#45;&#45;Explode</title>
<path fill="none" stroke="purple" d="M435.953,-360C411.651,-360 384,-360 384,-360 384,-360 384,-317.018 384,-285.285"/>
</g>
<!-- Voris&#45;&#45;Hunger -->
<g id="edge178" class="edge"><title>Voris&#45;&#45;Hunger</title>
<path fill="none" stroke="purple" d="M490,-328.594C490,-314.077 490,-300 490,-300 490,-300 2078,-300 2078,-300 2078,-300 2078,-283.74 2078,-270.147"/>
</g>
<!-- Mitch -->
<g id="node42" class="node"><title>Mitch</title>
<ellipse fill="none" stroke="black" cx="292" cy="-252" rx="36" ry="36"/>
<text text-anchor="middle" x="292" y="-248.3" font-family="Times,serif" font-size="14.00">Mitch</text>
</g>
<!-- Voris&#45;&#45;Mitch -->
<g id="edge186" class="edge"><title>Voris&#45;&#45;Mitch</title>
<path fill="none" stroke="purple" d="M454,-328.546C454,-311.547 454,-294 454,-294 454,-294 303,-294 303,-294 303,-294 303,-290.86 303,-286.297"/>
</g>
<!-- Hardknocks -->
<g id="node52" class="node"><title>Hardknocks</title>
<polygon fill="none" stroke="black" points="472,-288 436,-252 472,-216 508,-252 472,-288"/>
<text text-anchor="middle" x="472" y="-248.3" font-family="Times,serif" font-size="14.00">Hardknocks</text>
</g>
<!-- Voris&#45;&#45;Hardknocks -->
<g id="edge180" class="edge"><title>Voris&#45;&#45;Hardknocks</title>
<path fill="none" stroke="purple" d="M472,-323.737C472,-312.339 472,-299.755 472,-288.351"/>
</g>
<!-- Mitch&#45;&#45;Domination -->
<g id="edge192" class="edge"><title>Mitch&#45;&#45;Domination</title>
<path fill="none" stroke="purple" d="M265,-227.852C265,-210.443 265,-190 265,-190 265,-190 54,-190 54,-190 54,-190 54,-166.75 54,-153.309"/>
</g>
<!-- Mitch&#45;&#45;Protective -->
<g id="edge188" class="edge"><title>Mitch&#45;&#45;Protective</title>
<path fill="none" stroke="purple" d="M307.75,-219.596C307.75,-188.778 307.75,-146.725 307.75,-144.127"/>
</g>
<!-- Mitch&#45;&#45;Optimistic -->
<g id="edge194" class="edge"><title>Mitch&#45;&#45;Optimistic</title>
<path fill="none" stroke="purple" d="M321.25,-230.775C321.25,-214.569 321.25,-195 321.25,-195 321.25,-195 643.333,-195 643.333,-195 643.333,-195 643.333,-161.976 643.333,-149.077"/>
</g>
<!-- Mitch&#45;&#45;Lake\nJessup -->
<g id="edge190" class="edge"><title>Mitch&#45;&#45;Lake\nJessup</title>
<path fill="none" stroke="purple" d="M314.5,-223.586C314.5,-205.325 314.5,-185 314.5,-185 314.5,-185 486.5,-185 486.5,-185 486.5,-185 486.5,-175.688 486.5,-165.94"/>
</g>
<!-- Hamburger\nMary&#39;s -->
<g id="node51" class="node"><title>Hamburger\nMary&#39;s</title>
<polygon fill="none" stroke="black" points="247,-180 211,-144 247,-108 283,-144 247,-180"/>
<text text-anchor="middle" x="247" y="-147.8" font-family="Times,serif" font-size="14.00">Hamburger</text>
<text text-anchor="middle" x="247" y="-132.8" font-family="Times,serif" font-size="14.00">Mary&#39;s</text>
</g>
<!-- Mitch&#45;&#45;Hamburger\nMary&#39;s -->
<g id="edge196" class="edge"><title>Mitch&#45;&#45;Hamburger\nMary&#39;s</title>
<path fill="none" stroke="purple" d="M274,-220.762C274,-197.836 274,-168.211 274,-153.36"/>
</g>
<!-- UCF&#45;&#45;Technology -->
<g id="edge207" class="edge"><title>UCF&#45;&#45;Technology</title>
<path fill="none" stroke="black" d="M1632,-227.763C1632,-195.921 1632,-144 1632,-144 1632,-144 1474.65,-144 1413.19,-144"/>
</g>
<!-- UCF&#45;&#45;Skepticism -->
<g id="edge205" class="edge"><title>UCF&#45;&#45;Skepticism</title>
<path fill="none" stroke="black" d="M1656,-227.706C1656,-191.092 1656,-126 1656,-126 1656,-126 1842.05,-126 1847.86,-126"/>
</g>
<!-- Universal\nStudios&#45;&#45;Turf\nWar -->
<g id="edge221" class="edge"><title>Universal\nStudios&#45;&#45;Turf\nWar</title>
<path fill="none" stroke="black" d="M2085.5,-436.472C2085.5,-421.653 2085.5,-404.088 2085.5,-389.53"/>
</g>
<!-- Disney&#45;&#45;The\nSidhe -->
<g id="edge209" class="edge"><title>Disney&#45;&#45;The\nSidhe</title>
<path fill="none" stroke="black" d="M781.333,-130.652C781.333,-114.661 781.333,-90 781.333,-90 781.333,-90 140.6,-90 140.6,-90 140.6,-90 140.6,-52.2653 140.6,-39.8835"/>
</g>
<!-- Disney&#45;&#45;Ley\nLines -->
<g id="edge213" class="edge"><title>Disney&#45;&#45;Ley\nLines</title>
<path fill="none" stroke="black" d="M794.667,-117.303C794.667,-89.3192 794.667,-48.0594 794.667,-38.1817"/>
</g>
<!-- Disney&#45;&#45;Magic -->
<g id="edge211" class="edge"><title>Disney&#45;&#45;Magic</title>
<path fill="none" stroke="black" d="M824,-127.786C824,-93.7551 824,-18 824,-18 824,-18 1173.47,-18 1178.94,-18"/>
</g>
<!-- The\nPier&#45;&#45;True\nNeutral -->
<g id="edge215" class="edge"><title>The\nPier&#45;&#45;True\nNeutral</title>
<path fill="none" stroke="black" d="M277.926,-360C251.417,-360 220,-360 220,-360 220,-360 220,-287.325 220,-261.208"/>
</g>
<!-- Metro\nWest&#45;&#45;Diseased -->
<g id="edge217" class="edge"><title>Metro\nWest&#45;&#45;Diseased</title>
<path fill="none" stroke="black" d="M658.667,-452.466C658.667,-402.939 658.667,-252 658.667,-252 658.667,-252 710.267,-252 741.912,-252"/>
</g>
<!-- Viet\nDistrict&#45;&#45;Mercenary -->
<g id="edge223" class="edge"><title>Viet\nDistrict&#45;&#45;Mercenary</title>
<path fill="none" stroke="black" d="M1302,-431.737C1302,-420.339 1302,-407.755 1302,-396.351"/>
</g>
<!-- City\nHall&#45;&#45;Hunger -->
<g id="edge219" class="edge"><title>City\nHall&#45;&#45;Hunger</title>
<path fill="none" stroke="black" d="M1783,-670.902C1783,-596.464 1783,-230 1783,-230 1783,-230 2085.22,-230 2089.94,-230"/>
</g>
<!-- Zombie\nFortress&#45;&#45;White\nCouncil -->
<g id="edge225" class="edge"><title>Zombie\nFortress&#45;&#45;White\nCouncil</title>
<path fill="none" stroke="black" d="M1017.5,-333.303C1017.5,-315.064 1017.5,-291.184 1017.5,-274.03"/>
</g>
</g>
</svg>
