<?xml version="1.0" encoding="UTF-8" standalone="no"?>
<!DOCTYPE svg PUBLIC "-//W3C//DTD SVG 1.1//EN"
 "http://www.w3.org/Graphics/SVG/1.1/DTD/svg11.dtd">
<!-- Generated by graphviz version 2.28.0 (20120228.1928)
 -->
<!-- Title: might_of_aurora Pages: 1 -->
<svg width="1683pt" height="512pt"
 viewBox="0.00 0.00 1683.00 512.00" xmlns="http://www.w3.org/2000/svg" xmlns:xlink="http://www.w3.org/1999/xlink">
<g id="graph1" class="graph" transform="scale(1 1) rotate(0) translate(4 508)">
<title>might_of_aurora</title>
<polygon fill="white" stroke="white" points="-4,5 -4,-508 1680,-508 1680,5 -4,5"/>
<!-- Mandy -->
<g id="node2" class="node"><title>Mandy</title>
<polygon fill="coral" stroke="black" points="483,-504 411,-504 411,-432 483,-432 483,-504"/>
<text text-anchor="middle" x="447" y="-464.3" font-family="Times,serif" font-size="14.00">Mandy</text>
</g>
<!-- Opportunist -->
<g id="node15" class="node"><title>Opportunist</title>
<polygon fill="none" stroke="black" points="447,-396 411,-342 483,-342 447,-396"/>
<text text-anchor="middle" x="447" y="-356.3" font-family="Times,serif" font-size="14.00">Opportunist</text>
</g>
<!-- Mandy&#45;&#45;Opportunist -->
<g id="edge11" class="edge"><title>Mandy&#45;&#45;Opportunist</title>
<path fill="none" stroke="coral" d="M447,-431.737C447,-420.339 447,-407.755 447,-396.351"/>
</g>
<!-- Hunger -->
<g id="node16" class="node"><title>Hunger</title>
<polygon fill="none" stroke="black" points="36,-180 0,-126 72,-126 36,-180"/>
<text text-anchor="middle" x="36" y="-140.3" font-family="Times,serif" font-size="14.00">Hunger</text>
</g>
<!-- Mandy&#45;&#45;Hunger -->
<g id="edge7" class="edge"><title>Mandy&#45;&#45;Hunger</title>
<path fill="none" stroke="coral" d="M410.935,-480C308.642,-480 24,-480 24,-480 24,-480 24,-231.855 24,-162.065"/>
</g>
<!-- Cautious -->
<g id="node20" class="node"><title>Cautious</title>
<polygon fill="none" stroke="black" points="511,-288 475,-234 547,-234 511,-288"/>
<text text-anchor="middle" x="511" y="-248.3" font-family="Times,serif" font-size="14.00">Cautious</text>
</g>
<!-- Mandy&#45;&#45;Cautious -->
<g id="edge9" class="edge"><title>Mandy&#45;&#45;Cautious</title>
<path fill="none" stroke="coral" d="M483.072,-456C490.957,-456 497,-456 497,-456 497,-456 497,-314.112 497,-267.001"/>
</g>
<!-- Social -->
<g id="node23" class="node"><title>Social</title>
<polygon fill="none" stroke="black" points="575,-396 539,-342 611,-342 575,-396"/>
<text text-anchor="middle" x="575" y="-356.3" font-family="Times,serif" font-size="14.00">Social</text>
</g>
<!-- Mandy&#45;&#45;Social -->
<g id="edge13" class="edge"><title>Mandy&#45;&#45;Social</title>
<path fill="none" stroke="coral" d="M483.26,-480C503.629,-480 525,-480 525,-480 525,-480 525,-360 525,-360 525,-360 538.093,-360 550.879,-360"/>
</g>
<!-- Megan -->
<g id="node29" class="node"><title>Megan</title>
<ellipse fill="none" stroke="black" cx="357" cy="-360" rx="36" ry="36"/>
<text text-anchor="middle" x="357" y="-356.3" font-family="Times,serif" font-size="14.00">Megan</text>
</g>
<!-- Mandy&#45;&#45;Megan -->
<g id="edge15" class="edge"><title>Mandy&#45;&#45;Megan</title>
<path fill="none" stroke="coral" d="M410.912,-456C385.873,-456 357,-456 357,-456 357,-456 357,-423.26 357,-396.02"/>
</g>
<!-- Bobby -->
<g id="node3" class="node"><title>Bobby</title>
<polygon fill="blue" stroke="black" points="739,-396 667,-396 667,-324 739,-324 739,-396"/>
<text text-anchor="middle" x="703" y="-356.3" font-family="Times,serif" font-size="14.00">Bobby</text>
</g>
<!-- The Sidhe -->
<g id="node11" class="node"><title>The Sidhe</title>
<polygon fill="none" stroke="black" points="575,-180 539,-126 611,-126 575,-180"/>
<text text-anchor="middle" x="575" y="-140.3" font-family="Times,serif" font-size="14.00">The Sidhe</text>
</g>
<!-- Bobby&#45;&#45;The Sidhe -->
<g id="edge18" class="edge"><title>Bobby&#45;&#45;The Sidhe</title>
<path fill="none" stroke="blue" d="M684,-323.998C684,-265.434 684,-156 684,-156 684,-156 621.404,-156 591.083,-156"/>
</g>
<!-- Domination -->
<g id="node13" class="node"><title>Domination</title>
<polygon fill="none" stroke="black" points="819,-288 783,-234 855,-234 819,-288"/>
<text text-anchor="middle" x="819" y="-248.3" font-family="Times,serif" font-size="14.00">Domination</text>
</g>
<!-- Bobby&#45;&#45;Domination -->
<g id="edge20" class="edge"><title>Bobby&#45;&#45;Domination</title>
<path fill="none" stroke="blue" d="M739.082,-360C769.12,-360 807,-360 807,-360 807,-360 807,-301.134 807,-270.321"/>
</g>
<!-- Mercenary -->
<g id="node18" class="node"><title>Mercenary</title>
<polygon fill="none" stroke="black" points="639,-288 603,-234 675,-234 639,-288"/>
<text text-anchor="middle" x="639" y="-248.3" font-family="Times,serif" font-size="14.00">Mercenary</text>
</g>
<!-- Bobby&#45;&#45;Mercenary -->
<g id="edge24" class="edge"><title>Bobby&#45;&#45;Mercenary</title>
<path fill="none" stroke="blue" d="M672.333,-323.737C672.333,-293.342 672.333,-254.514 672.333,-252.117"/>
</g>
<!-- Bobby&#45;&#45;Cautious -->
<g id="edge22" class="edge"><title>Bobby&#45;&#45;Cautious</title>
<path fill="none" stroke="blue" d="M669.667,-323.619C669.667,-316.925 669.667,-312 669.667,-312 669.667,-312 541.667,-312 541.667,-312 541.667,-312 541.667,-253.86 541.667,-252.043"/>
</g>
<!-- Viet District -->
<g id="node45" class="node"><title>Viet District</title>
<polygon fill="none" stroke="black" points="729,-288 693,-252 729,-216 765,-252 729,-288"/>
<text text-anchor="middle" x="729" y="-248.3" font-family="Times,serif" font-size="14.00">Viet District</text>
</g>
<!-- Bobby&#45;&#45;Viet District -->
<g id="edge26" class="edge"><title>Bobby&#45;&#45;Viet District</title>
<path fill="none" stroke="blue" d="M716,-323.737C716,-307.682 716,-289.273 716,-275.124"/>
</g>
<!-- Sebastian -->
<g id="node4" class="node"><title>Sebastian</title>
<polygon fill="red" stroke="black" points="1573,-396 1501,-396 1501,-324 1573,-324 1573,-396"/>
<text text-anchor="middle" x="1537" y="-356.3" font-family="Times,serif" font-size="14.00">Sebastian</text>
</g>
<!-- The\nSearch -->
<g id="node8" class="node"><title>The\nSearch</title>
<polygon fill="none" stroke="black" points="1293,-288 1257,-234 1329,-234 1293,-288"/>
<text text-anchor="middle" x="1293" y="-255.8" font-family="Times,serif" font-size="14.00">The</text>
<text text-anchor="middle" x="1293" y="-240.8" font-family="Times,serif" font-size="14.00">Search</text>
</g>
<!-- Sebastian&#45;&#45;The\nSearch -->
<g id="edge29" class="edge"><title>Sebastian&#45;&#45;The\nSearch</title>
<path fill="none" stroke="red" stroke-width="2" d="M1506.33,-323.664C1506.33,-319.104 1506.33,-316 1506.33,-316 1506.33,-316 1309.5,-316 1309.5,-316 1309.5,-316 1309.5,-281.851 1309.5,-263.442"/>
</g>
<!-- Diseased -->
<g id="node17" class="node"><title>Diseased</title>
<polygon fill="none" stroke="black" points="1620,-180 1584,-126 1656,-126 1620,-180"/>
<text text-anchor="middle" x="1620" y="-140.3" font-family="Times,serif" font-size="14.00">Diseased</text>
</g>
<!-- Sebastian&#45;&#45;Diseased -->
<g id="edge31" class="edge"><title>Sebastian&#45;&#45;Diseased</title>
<path fill="none" stroke="red" stroke-dasharray="5,2" d="M1573.1,-360C1584.18,-360 1593.5,-360 1593.5,-360 1593.5,-360 1593.5,-150.697 1593.5,-144.157"/>
</g>
<!-- White\nCouncil -->
<g id="node19" class="node"><title>White\nCouncil</title>
<polygon fill="none" stroke="black" points="1499,-72 1463,-18 1535,-18 1499,-72"/>
<text text-anchor="middle" x="1499" y="-39.8" font-family="Times,serif" font-size="14.00">White</text>
<text text-anchor="middle" x="1499" y="-24.8" font-family="Times,serif" font-size="14.00">Council</text>
</g>
<!-- Sebastian&#45;&#45;White\nCouncil -->
<g id="edge33" class="edge"><title>Sebastian&#45;&#45;White\nCouncil</title>
<path fill="none" stroke="red" stroke-dasharray="1,5" d="M1522,-323.776C1522,-243.853 1522,-57.8733 1522,-37.7708"/>
</g>
<!-- Sebastian&#45;&#45;Cautious -->
<g id="edge35" class="edge"><title>Sebastian&#45;&#45;Cautious</title>
<path fill="none" stroke="red" d="M1503.67,-323.982C1503.67,-321.526 1503.67,-320 1503.67,-320 1503.67,-320 511,-320 511,-320 511,-320 511,-304.556 511,-288.389"/>
</g>
<!-- Metro\nWest -->
<g id="node43" class="node"><title>Metro\nWest</title>
<polygon fill="none" stroke="black" points="1639,-288 1603,-252 1639,-216 1675,-252 1639,-288"/>
<text text-anchor="middle" x="1639" y="-255.8" font-family="Times,serif" font-size="14.00">Metro</text>
<text text-anchor="middle" x="1639" y="-240.8" font-family="Times,serif" font-size="14.00">West</text>
</g>
<!-- Sebastian&#45;&#45;Metro\nWest -->
<g id="edge37" class="edge"><title>Sebastian&#45;&#45;Metro\nWest</title>
<path fill="none" stroke="red" d="M1554,-323.737C1554,-292.362 1554,-252 1554,-252 1554,-252 1579.79,-252 1602.95,-252"/>
</g>
<!-- Vecklethorp -->
<g id="node5" class="node"><title>Vecklethorp</title>
<polygon fill="orange" stroke="black" points="1264.25,-396 1181.75,-396 1181.75,-324 1264.25,-324 1264.25,-396"/>
<text text-anchor="middle" x="1223" y="-356.3" font-family="Times,serif" font-size="14.00">Vecklethorp</text>
</g>
<!-- Vecklethorp&#45;&#45;The\nSearch -->
<g id="edge40" class="edge"><title>Vecklethorp&#45;&#45;The\nSearch</title>
<path fill="none" stroke="orange" d="M1260.62,-323.737C1260.62,-293.342 1260.62,-254.514 1260.62,-252.117"/>
</g>
<!-- Magic -->
<g id="node10" class="node"><title>Magic</title>
<polygon fill="none" stroke="black" points="1063,-180 1027,-126 1099,-126 1063,-180"/>
<text text-anchor="middle" x="1063" y="-140.3" font-family="Times,serif" font-size="14.00">Magic</text>
</g>
<!-- Vecklethorp&#45;&#45;Magic -->
<g id="edge42" class="edge"><title>Vecklethorp&#45;&#45;Magic</title>
<path fill="none" stroke="orange" d="M1181.6,-342C1135.39,-342 1067,-342 1067,-342 1067,-342 1067,-229.462 1067,-174.072"/>
</g>
<!-- True\nNeutral -->
<g id="node21" class="node"><title>True\nNeutral</title>
<polygon fill="none" stroke="black" points="1383,-288 1347,-234 1419,-234 1383,-288"/>
<text text-anchor="middle" x="1383" y="-255.8" font-family="Times,serif" font-size="14.00">True</text>
<text text-anchor="middle" x="1383" y="-240.8" font-family="Times,serif" font-size="14.00">Neutral</text>
</g>
<!-- Vecklethorp&#45;&#45;True\nNeutral -->
<g id="edge44" class="edge"><title>Vecklethorp&#45;&#45;True\nNeutral</title>
<path fill="none" stroke="orange" d="M1262.44,-323.901C1262.44,-313.065 1262.44,-304 1262.44,-304 1262.44,-304 1371,-304 1371,-304 1371,-304 1371,-285.182 1371,-270.187"/>
</g>
<!-- Skepticism -->
<g id="node22" class="node"><title>Skepticism</title>
<polygon fill="none" stroke="black" points="1197,-180 1161,-126 1233,-126 1197,-180"/>
<text text-anchor="middle" x="1197" y="-140.3" font-family="Times,serif" font-size="14.00">Skepticism</text>
</g>
<!-- Vecklethorp&#45;&#45;Skepticism -->
<g id="edge46" class="edge"><title>Vecklethorp&#45;&#45;Skepticism</title>
<path fill="none" stroke="orange" d="M1217,-323.846C1217,-270.763 1217,-175.3 1217,-150.189"/>
</g>
<!-- UCF -->
<g id="node39" class="node"><title>UCF</title>
<polygon fill="none" stroke="black" points="1165,-288 1129,-252 1165,-216 1201,-252 1165,-288"/>
<text text-anchor="middle" x="1165" y="-248.3" font-family="Times,serif" font-size="14.00">UCF</text>
</g>
<!-- Vecklethorp&#45;&#45;UCF -->
<g id="edge48" class="edge"><title>Vecklethorp&#45;&#45;UCF</title>
<path fill="none" stroke="orange" d="M1191.38,-323.737C1191.38,-301.922 1191.38,-275.761 1191.38,-261.845"/>
</g>
<!-- Sir Wyngard -->
<g id="node6" class="node"><title>Sir Wyngard</title>
<polygon fill="green" stroke="black" points="862.25,-504 775.75,-504 775.75,-432 862.25,-432 862.25,-504"/>
<text text-anchor="middle" x="819" y="-464.3" font-family="Times,serif" font-size="14.00">Sir Wyngard</text>
</g>
<!-- Sir Wyngard&#45;&#45;Domination -->
<g id="edge53" class="edge"><title>Sir Wyngard&#45;&#45;Domination</title>
<path fill="none" stroke="green" d="M831,-431.846C831,-385.129 831,-305.585 831,-270.063"/>
</g>
<!-- Vendetta -->
<g id="node14" class="node"><title>Vendetta</title>
<polygon fill="none" stroke="black" points="909,-288 873,-234 945,-234 909,-288"/>
<text text-anchor="middle" x="909" y="-248.3" font-family="Times,serif" font-size="14.00">Vendetta</text>
</g>
<!-- Sir Wyngard&#45;&#45;Vendetta -->
<g id="edge51" class="edge"><title>Sir Wyngard&#45;&#45;Vendetta</title>
<path fill="none" stroke="green" d="M857.417,-431.846C857.417,-370.357 857.417,-252 857.417,-252 857.417,-252 871.34,-252 884.719,-252"/>
</g>
<!-- Sir Wyngard&#45;&#45;Cautious -->
<g id="edge55" class="edge"><title>Sir Wyngard&#45;&#45;Cautious</title>
<path fill="none" stroke="green" d="M780.583,-431.694C780.583,-384.487 780.583,-308 780.583,-308 780.583,-308 544.333,-308 544.333,-308 544.333,-308 544.333,-255.445 544.333,-252.161"/>
</g>
<!-- Sir Wyngard&#45;&#45;Social -->
<g id="edge57" class="edge"><title>Sir Wyngard&#45;&#45;Social</title>
<path fill="none" stroke="green" d="M778.167,-431.981C778.167,-422.076 778.167,-414 778.167,-414 778.167,-414 587,-414 587,-414 587,-414 587,-393.948 587,-378.282"/>
</g>
<!-- Willam -->
<g id="node30" class="node"><title>Willam</title>
<ellipse fill="none" stroke="black" cx="999" cy="-360" rx="36" ry="36"/>
<text text-anchor="middle" x="999" y="-356.3" font-family="Times,serif" font-size="14.00">Willam</text>
</g>
<!-- Sir Wyngard&#45;&#45;Willam -->
<g id="edge59" class="edge"><title>Sir Wyngard&#45;&#45;Willam</title>
<path fill="none" stroke="green" d="M859.833,-431.912C859.833,-406.873 859.833,-378 859.833,-378 859.833,-378 926.737,-378 967.768,-378"/>
</g>
<!-- Turf\nWar -->
<g id="node9" class="node"><title>Turf\nWar</title>
<polygon fill="none" stroke="black" points="331,-288 295,-234 367,-234 331,-288"/>
<text text-anchor="middle" x="331" y="-255.8" font-family="Times,serif" font-size="14.00">Turf</text>
<text text-anchor="middle" x="331" y="-240.8" font-family="Times,serif" font-size="14.00">War</text>
</g>
<!-- Ley\nLines -->
<g id="node12" class="node"><title>Ley\nLines</title>
<polygon fill="none" stroke="black" points="1236,-504 1200,-450 1272,-450 1236,-504"/>
<text text-anchor="middle" x="1236" y="-471.8" font-family="Times,serif" font-size="14.00">Ley</text>
<text text-anchor="middle" x="1236" y="-456.8" font-family="Times,serif" font-size="14.00">Lines</text>
</g>
<!-- Protective -->
<g id="node24" class="node"><title>Protective</title>
<polygon fill="none" stroke="black" points="126,-72 90,-18 162,-18 126,-72"/>
<text text-anchor="middle" x="126" y="-32.3" font-family="Times,serif" font-size="14.00">Protective</text>
</g>
<!-- Technology -->
<g id="node25" class="node"><title>Technology</title>
<polygon fill="none" stroke="black" points="1326,-504 1290,-450 1362,-450 1326,-504"/>
<text text-anchor="middle" x="1326" y="-464.3" font-family="Times,serif" font-size="14.00">Technology</text>
</g>
<!-- Reckless -->
<g id="node26" class="node"><title>Reckless</title>
<polygon fill="none" stroke="black" points="1416,-504 1380,-450 1452,-450 1416,-504"/>
<text text-anchor="middle" x="1416" y="-464.3" font-family="Times,serif" font-size="14.00">Reckless</text>
</g>
<!-- Urkel -->
<g id="node28" class="node"><title>Urkel</title>
<ellipse fill="none" stroke="black" cx="1146" cy="-468" rx="36" ry="36"/>
<text text-anchor="middle" x="1146" y="-464.3" font-family="Times,serif" font-size="14.00">Urkel</text>
</g>
<!-- Urkel&#45;&#45;The\nSearch -->
<g id="edge62" class="edge"><title>Urkel&#45;&#45;The\nSearch</title>
<path fill="none" stroke="purple" d="M1164.17,-436.852C1164.17,-387.286 1164.17,-296 1164.17,-296 1164.17,-296 1258.81,-296 1258.81,-296 1258.81,-296 1258.81,-254.707 1258.81,-252.126"/>
</g>
<!-- Urkel&#45;&#45;Willam -->
<g id="edge64" class="edge"><title>Urkel&#45;&#45;Willam</title>
<path fill="none" stroke="purple" d="M1119.5,-443.493C1119.5,-411.629 1119.5,-360 1119.5,-360 1119.5,-360 1070.65,-360 1035.15,-360"/>
</g>
<!-- Megan&#45;&#45;The\nSearch -->
<g id="edge66" class="edge"><title>Megan&#45;&#45;The\nSearch</title>
<path fill="none" stroke="purple" d="M390.333,-346.385C390.333,-328.683 390.333,-300 390.333,-300 390.333,-300 1268.12,-300 1268.12,-300 1268.12,-300 1268.12,-254.953 1268.12,-252.138"/>
</g>
<!-- Megan&#45;&#45;Turf\nWar -->
<g id="edge68" class="edge"><title>Megan&#45;&#45;Turf\nWar</title>
<path fill="none" stroke="purple" d="M344,-326.42C344,-307.225 344,-283.992 344,-268.648"/>
</g>
<!-- Universal\nStudios -->
<g id="node40" class="node"><title>Universal\nStudios</title>
<polygon fill="none" stroke="black" points="421,-288 385,-252 421,-216 457,-252 421,-288"/>
<text text-anchor="middle" x="421" y="-255.8" font-family="Times,serif" font-size="14.00">Universal</text>
<text text-anchor="middle" x="421" y="-240.8" font-family="Times,serif" font-size="14.00">Studios</text>
</g>
<!-- Megan&#45;&#45;Universal\nStudios -->
<g id="edge70" class="edge"><title>Megan&#45;&#45;Universal\nStudios</title>
<path fill="none" stroke="purple" d="M387.667,-340.94C387.667,-314.054 387.667,-266.914 387.667,-254.867"/>
</g>
<!-- Willam&#45;&#45;Magic -->
<g id="edge76" class="edge"><title>Willam&#45;&#45;Magic</title>
<path fill="none" stroke="purple" d="M1030.45,-378C1041.4,-378 1051,-378 1051,-378 1051,-378 1051,-217.525 1051,-162.362"/>
</g>
<!-- Willam&#45;&#45;Vendetta -->
<g id="edge72" class="edge"><title>Willam&#45;&#45;Vendetta</title>
<path fill="none" stroke="purple" d="M967.775,-342C941.781,-342 909,-342 909,-342 909,-342 909,-313.127 909,-288.088"/>
</g>
<!-- Disney -->
<g id="node41" class="node"><title>Disney</title>
<polygon fill="none" stroke="black" points="999,-288 963,-252 999,-216 1035,-252 999,-288"/>
<text text-anchor="middle" x="999" y="-248.3" font-family="Times,serif" font-size="14.00">Disney</text>
</g>
<!-- Willam&#45;&#45;Disney -->
<g id="edge74" class="edge"><title>Willam&#45;&#45;Disney</title>
<path fill="none" stroke="purple" d="M999,-323.737C999,-312.339 999,-299.755 999,-288.351"/>
</g>
<!-- Black\nCoats -->
<g id="node31" class="node"><title>Black\nCoats</title>
<ellipse fill="none" stroke="black" cx="1473" cy="-252" rx="36" ry="36"/>
<text text-anchor="middle" x="1473" y="-255.8" font-family="Times,serif" font-size="14.00">Black</text>
<text text-anchor="middle" x="1473" y="-240.8" font-family="Times,serif" font-size="14.00">Coats</text>
</g>
<!-- Black\nCoats&#45;&#45;Magic -->
<g id="edge78" class="edge"><title>Black\nCoats&#45;&#45;Magic</title>
<path fill="none" stroke="purple" d="M1454,-221.214C1454,-209.087 1454,-198 1454,-198 1454,-198 1083,-198 1083,-198 1083,-198 1083,-164.379 1083,-150.194"/>
</g>
<!-- Black\nCoats&#45;&#45;The Sidhe -->
<g id="edge84" class="edge"><title>Black\nCoats&#45;&#45;The Sidhe</title>
<path fill="none" stroke="purple" d="M1445.5,-228.544C1445.5,-218.923 1445.5,-210 1445.5,-210 1445.5,-210 607,-210 607,-210 607,-210 607,-146.046 607,-144.048"/>
</g>
<!-- Black\nCoats&#45;&#45;White\nCouncil -->
<g id="edge82" class="edge"><title>Black\nCoats&#45;&#45;White\nCouncil</title>
<path fill="none" stroke="purple" d="M1490,-220.128C1490,-176.004 1490,-97.3858 1490,-58.733"/>
</g>
<!-- Bartholomew -->
<g id="node34" class="node"><title>Bartholomew</title>
<ellipse fill="none" stroke="black" cx="1435" cy="-144" rx="36" ry="36"/>
<text text-anchor="middle" x="1435" y="-140.3" font-family="Times,serif" font-size="14.00">Bartholomew</text>
</g>
<!-- Black\nCoats&#45;&#45;Bartholomew -->
<g id="edge80" class="edge"><title>Black\nCoats&#45;&#45;Bartholomew</title>
<path fill="none" stroke="purple" d="M1462.5,-217.531C1462.5,-201.11 1462.5,-181.905 1462.5,-167.24"/>
</g>
<!-- Pablo\nEscobar -->
<g id="node32" class="node"><title>Pablo\nEscobar</title>
<ellipse fill="none" stroke="black" cx="177" cy="-360" rx="36" ry="36"/>
<text text-anchor="middle" x="177" y="-363.8" font-family="Times,serif" font-size="14.00">Pablo</text>
<text text-anchor="middle" x="177" y="-348.8" font-family="Times,serif" font-size="14.00">Escobar</text>
</g>
<!-- Pablo\nEscobar&#45;&#45;The Sidhe -->
<g id="edge88" class="edge"><title>Pablo\nEscobar&#45;&#45;The Sidhe</title>
<path fill="none" stroke="purple" d="M183.5,-324.369C183.5,-273.463 183.5,-186 183.5,-186 183.5,-186 541.667,-186 541.667,-186 541.667,-186 541.667,-146.584 541.667,-144.12"/>
</g>
<!-- Pablo\nEscobar&#45;&#45;Hunger -->
<g id="edge94" class="edge"><title>Pablo\nEscobar&#45;&#45;Hunger</title>
<path fill="none" stroke="purple" d="M140.723,-360C102.568,-360 48,-360 48,-360 48,-360 48,-213.958 48,-162.045"/>
</g>
<!-- Reggie -->
<g id="node33" class="node"><title>Reggie</title>
<ellipse fill="none" stroke="black" cx="241" cy="-252" rx="36" ry="36"/>
<text text-anchor="middle" x="241" y="-248.3" font-family="Times,serif" font-size="14.00">Reggie</text>
</g>
<!-- Pablo\nEscobar&#45;&#45;Reggie -->
<g id="edge92" class="edge"><title>Pablo\nEscobar&#45;&#45;Reggie</title>
<path fill="none" stroke="purple" d="M207.667,-340.94C207.667,-319.382 207.667,-284.804 207.667,-265.735"/>
</g>
<!-- Voris -->
<g id="node36" class="node"><title>Voris</title>
<ellipse fill="none" stroke="black" cx="113" cy="-252" rx="36" ry="36"/>
<text text-anchor="middle" x="113" y="-248.3" font-family="Times,serif" font-size="14.00">Voris</text>
</g>
<!-- Pablo\nEscobar&#45;&#45;Voris -->
<g id="edge90" class="edge"><title>Pablo\nEscobar&#45;&#45;Voris</title>
<path fill="none" stroke="purple" d="M145,-343.125C145,-322.835 145,-288.993 145,-268.757"/>
</g>
<!-- Pablo\nEscobar&#45;&#45;UCF -->
<g id="edge86" class="edge"><title>Pablo\nEscobar&#45;&#45;UCF</title>
<path fill="none" stroke="purple" d="M210.333,-346.239C210.333,-326.369 210.333,-292 210.333,-292 210.333,-292 1146.58,-292 1146.58,-292 1146.58,-292 1146.58,-280.376 1146.58,-269.661"/>
</g>
<!-- Reggie&#45;&#45;Magic -->
<g id="edge98" class="edge"><title>Reggie&#45;&#45;Magic</title>
<path fill="none" stroke="purple" d="M259,-220.788C259,-211.62 259,-204 259,-204 259,-204 1029.67,-204 1029.67,-204 1029.67,-204 1029.67,-145.86 1029.67,-144.043"/>
</g>
<!-- Reggie&#45;&#45;The Sidhe -->
<g id="edge100" class="edge"><title>Reggie&#45;&#45;The Sidhe</title>
<path fill="none" stroke="purple" d="M241,-215.714C241,-203.078 241,-192 241,-192 241,-192 544.333,-192 544.333,-192 544.333,-192 544.333,-146.953 544.333,-144.138"/>
</g>
<!-- Lake\nJessup -->
<g id="node44" class="node"><title>Lake\nJessup</title>
<polygon fill="none" stroke="black" points="241,-180 205,-144 241,-108 277,-144 241,-180"/>
<text text-anchor="middle" x="241" y="-147.8" font-family="Times,serif" font-size="14.00">Lake</text>
<text text-anchor="middle" x="241" y="-132.8" font-family="Times,serif" font-size="14.00">Jessup</text>
</g>
<!-- Reggie&#45;&#45;Lake\nJessup -->
<g id="edge96" class="edge"><title>Reggie&#45;&#45;Lake\nJessup</title>
<path fill="none" stroke="purple" d="M223,-220.762C223,-201.699 223,-178.003 223,-162.022"/>
</g>
<!-- Bartholomew&#45;&#45;White\nCouncil -->
<g id="edge102" class="edge"><title>Bartholomew&#45;&#45;White\nCouncil</title>
<path fill="none" stroke="purple" d="M1467,-127.125C1467,-97.2246 1467,-37.891 1467,-36.0441"/>
</g>
<!-- Boshnik -->
<g id="node35" class="node"><title>Boshnik</title>
<ellipse fill="none" stroke="black" cx="575" cy="-468" rx="36" ry="36"/>
<text text-anchor="middle" x="575" y="-464.3" font-family="Times,serif" font-size="14.00">Boshnik</text>
</g>
<!-- Boshnik&#45;&#45;Social -->
<g id="edge104" class="edge"><title>Boshnik&#45;&#45;Social</title>
<path fill="none" stroke="purple" d="M563,-433.828C563,-415.412 563,-393.424 563,-378.26"/>
</g>
<!-- Voris&#45;&#45;Hunger -->
<g id="edge106" class="edge"><title>Voris&#45;&#45;Hunger</title>
<path fill="none" stroke="purple" d="M83.5,-231.177C83.5,-199.793 83.5,-144 83.5,-144 83.5,-144 71.8098,-144 60.0283,-144"/>
</g>
<!-- Mitch -->
<g id="node37" class="node"><title>Mitch</title>
<ellipse fill="none" stroke="black" cx="126" cy="-144" rx="36" ry="36"/>
<text text-anchor="middle" x="126" y="-140.3" font-family="Times,serif" font-size="14.00">Mitch</text>
</g>
<!-- Voris&#45;&#45;Mitch -->
<g id="edge108" class="edge"><title>Voris&#45;&#45;Mitch</title>
<path fill="none" stroke="purple" d="M119.5,-216.337C119.5,-204.541 119.5,-191.419 119.5,-179.625"/>
</g>
<!-- Mitch&#45;&#45;Protective -->
<g id="edge110" class="edge"><title>Mitch&#45;&#45;Protective</title>
<path fill="none" stroke="purple" d="M126,-107.737C126,-96.3391 126,-83.7551 126,-72.351"/>
</g>
<!-- UCF&#45;&#45;Skepticism -->
<g id="edge113" class="edge"><title>UCF&#45;&#45;Skepticism</title>
<path fill="none" stroke="black" d="M1181,-231.939C1181,-209.735 1181,-174.655 1181,-156.23"/>
</g>
<!-- Disney&#45;&#45;Magic -->
<g id="edge117" class="edge"><title>Disney&#45;&#45;Magic</title>
<path fill="none" stroke="black" d="M1032.33,-249.33C1032.33,-232.959 1032.33,-146.754 1032.33,-144.064"/>
</g>
<!-- Disney&#45;&#45;The Sidhe -->
<g id="edge115" class="edge"><title>Disney&#45;&#45;The Sidhe</title>
<path fill="none" stroke="black" d="M995,-219.842C995,-184.297 995,-132 995,-132 995,-132 705.608,-132 607.259,-132"/>
</g>
<!-- The Pier -->
<g id="node42" class="node"><title>The Pier</title>
<polygon fill="none" stroke="black" points="1383,-396 1347,-360 1383,-324 1419,-360 1383,-396"/>
<text text-anchor="middle" x="1383" y="-356.3" font-family="Times,serif" font-size="14.00">The Pier</text>
</g>
<!-- The Pier&#45;&#45;True\nNeutral -->
<g id="edge119" class="edge"><title>The Pier&#45;&#45;True\nNeutral</title>
<path fill="none" stroke="black" d="M1395,-335.763C1395,-315.861 1395,-288.117 1395,-270.107"/>
</g>
<!-- Metro\nWest&#45;&#45;Diseased -->
<g id="edge121" class="edge"><title>Metro\nWest&#45;&#45;Diseased</title>
<path fill="none" stroke="black" d="M1629.5,-225.303C1629.5,-207.064 1629.5,-183.184 1629.5,-166.03"/>
</g>
</g>
</svg>
